# xmcd CD database file
#
# Track frame offsets:
#	150
#	21038
#	49285
#	87156
#	113052
#	141666
#	162892
#	194443
#	228218
#	247169
#	284601
#	308298
#	336649
#
# Disc length: 4783 seconds
#
# Revision: 0
# Processed by: cddbd v1.5.2PL0 Copyright (c) Steve Scherf et al.
# Submitted via: CDex 1.51
#
DISCID=bc12ad0d
DTITLE=Robert Cray Band - Live from Across the Pond
DYEAR=2006
DGENRE=Blues
TTITLE0=Robert Cray Band - Phone Booth
TTITLE1=Robert Cray Band - Poor Johnny
TTITLE2=Robert Cray Band - Our Last Time
TTITLE3=Robert Cray Band - Right Next Door (Because Of Me)
TTITLE4=Robert Cray Band - 12 Year Old Boy
TTITLE5=Robert Cray Band - I Guess I Showed Her
TTITLE6=Robert Cray Band - The Things You Do To Me
TTITLE7=Robert Cray Band - Twenty
TTITLE8=Robert Cray Band - Bad Influence
TTITLE9=Robert Cray Band - The One In The Middle
TTITLE10=Robert Cray Band - Back Door Slam
TTITLE11=Robert Cray Band - Time Makes Two
TTITLE12=Robert Cray Band - I'm Walkin'
EXTD=YEAR: 2006
EXTT0=
EXTT1=
EXTT2=
EXTT3=
EXTT4=
EXTT5=
EXTT6=
EXTT7=
EXTT8=
EXTT9=
EXTT10=
EXTT11=
EXTT12=
PLAYORDER=
